<mxfile host="app.diagrams.net" modified="2024-03-16T08:38:05.017Z" agent="Mozilla/5.0 (Windows NT 10.0; Win64; x64) AppleWebKit/537.36 (KHTML, like Gecko) Chrome/122.0.0.0 Safari/537.36 Edg/122.0.0.0" etag="PoTj791vrnHFgw2zLd85" version="23.1.2" type="device">
  <diagram name="Page-1" id="lJ3xX-bCD8JWHBcTt2rG">
    <mxGraphModel dx="1253" dy="711" grid="1" gridSize="10" guides="1" tooltips="1" connect="1" arrows="1" fold="1" page="1" pageScale="1" pageWidth="850" pageHeight="1100" math="0" shadow="0">
      <root>
        <mxCell id="0" />
        <mxCell id="1" parent="0" />
        <mxCell id="6a9c25DvWT7pFZT9xAfh-8" style="edgeStyle=orthogonalEdgeStyle;rounded=0;orthogonalLoop=1;jettySize=auto;html=1;" edge="1" parent="1" source="6a9c25DvWT7pFZT9xAfh-1" target="6a9c25DvWT7pFZT9xAfh-3">
          <mxGeometry relative="1" as="geometry" />
        </mxCell>
        <mxCell id="6a9c25DvWT7pFZT9xAfh-1" value="ReGen AI" style="whiteSpace=wrap;html=1;aspect=fixed;" vertex="1" parent="1">
          <mxGeometry x="360" y="200" width="80" height="80" as="geometry" />
        </mxCell>
        <mxCell id="6a9c25DvWT7pFZT9xAfh-2" value="ReGen Stage 1" style="text;strokeColor=none;fillColor=none;html=1;fontSize=24;fontStyle=1;verticalAlign=middle;align=center;" vertex="1" parent="1">
          <mxGeometry x="360" y="30" width="100" height="40" as="geometry" />
        </mxCell>
        <mxCell id="6a9c25DvWT7pFZT9xAfh-3" value="Optimized&amp;nbsp;&lt;br&gt;Re-Written&amp;nbsp;&lt;br&gt;Resume" style="whiteSpace=wrap;html=1;aspect=fixed;" vertex="1" parent="1">
          <mxGeometry x="505" y="200" width="80" height="80" as="geometry" />
        </mxCell>
        <mxCell id="6a9c25DvWT7pFZT9xAfh-6" style="edgeStyle=orthogonalEdgeStyle;rounded=0;orthogonalLoop=1;jettySize=auto;html=1;" edge="1" parent="1" source="6a9c25DvWT7pFZT9xAfh-4" target="6a9c25DvWT7pFZT9xAfh-1">
          <mxGeometry relative="1" as="geometry">
            <mxPoint x="320" y="310" as="targetPoint" />
            <Array as="points">
              <mxPoint x="320" y="180" />
              <mxPoint x="320" y="240" />
            </Array>
          </mxGeometry>
        </mxCell>
        <mxCell id="6a9c25DvWT7pFZT9xAfh-4" value="Input &lt;br&gt;Resume" style="whiteSpace=wrap;html=1;aspect=fixed;" vertex="1" parent="1">
          <mxGeometry x="200" y="140" width="80" height="80" as="geometry" />
        </mxCell>
        <mxCell id="6a9c25DvWT7pFZT9xAfh-7" style="edgeStyle=orthogonalEdgeStyle;rounded=0;orthogonalLoop=1;jettySize=auto;html=1;entryX=0;entryY=0.5;entryDx=0;entryDy=0;" edge="1" parent="1" source="6a9c25DvWT7pFZT9xAfh-5" target="6a9c25DvWT7pFZT9xAfh-1">
          <mxGeometry relative="1" as="geometry">
            <mxPoint x="320" y="120" as="targetPoint" />
            <Array as="points">
              <mxPoint x="320" y="300" />
              <mxPoint x="320" y="240" />
            </Array>
          </mxGeometry>
        </mxCell>
        <mxCell id="6a9c25DvWT7pFZT9xAfh-5" value="Input&amp;nbsp;&lt;br&gt;Linkedin&lt;br&gt;Job Link" style="whiteSpace=wrap;html=1;aspect=fixed;" vertex="1" parent="1">
          <mxGeometry x="200" y="260" width="80" height="80" as="geometry" />
        </mxCell>
        <mxCell id="6a9c25DvWT7pFZT9xAfh-10" value="ReGen Stage 2 - Job Seekers" style="text;strokeColor=none;fillColor=none;html=1;fontSize=24;fontStyle=1;verticalAlign=middle;align=center;" vertex="1" parent="1">
          <mxGeometry x="355" y="400" width="100" height="40" as="geometry" />
        </mxCell>
        <mxCell id="6a9c25DvWT7pFZT9xAfh-11" value="&lt;font style=&quot;font-weight: normal; font-size: 10px;&quot;&gt;Simple Resume rewriting app, which takes resume along with link to job post, Then rewrites the resume by optimizing it &lt;br style=&quot;font-size: 10px;&quot;&gt;specifically to meet the requirements of the job to get maximum shortlisting chances.&lt;/font&gt;" style="text;strokeColor=none;fillColor=none;html=1;fontSize=10;fontStyle=1;verticalAlign=bottom;align=left;horizontal=1;fontColor=#058AFF;" vertex="1" parent="1">
          <mxGeometry x="160" y="70" width="100" height="40" as="geometry" />
        </mxCell>
        <mxCell id="6a9c25DvWT7pFZT9xAfh-20" style="edgeStyle=orthogonalEdgeStyle;rounded=0;orthogonalLoop=1;jettySize=auto;html=1;entryX=0.5;entryY=1;entryDx=0;entryDy=0;" edge="1" parent="1" source="6a9c25DvWT7pFZT9xAfh-12" target="6a9c25DvWT7pFZT9xAfh-18">
          <mxGeometry relative="1" as="geometry">
            <mxPoint x="215" y="680" as="targetPoint" />
            <Array as="points">
              <mxPoint x="165" y="680" />
            </Array>
          </mxGeometry>
        </mxCell>
        <mxCell id="6a9c25DvWT7pFZT9xAfh-12" value="Input &lt;br&gt;Resume" style="whiteSpace=wrap;html=1;aspect=fixed;" vertex="1" parent="1">
          <mxGeometry x="45" y="640" width="80" height="80" as="geometry" />
        </mxCell>
        <mxCell id="6a9c25DvWT7pFZT9xAfh-19" style="edgeStyle=orthogonalEdgeStyle;rounded=0;orthogonalLoop=1;jettySize=auto;html=1;entryX=0.5;entryY=0;entryDx=0;entryDy=0;" edge="1" parent="1" source="6a9c25DvWT7pFZT9xAfh-14" target="6a9c25DvWT7pFZT9xAfh-18">
          <mxGeometry relative="1" as="geometry">
            <mxPoint x="215" y="560" as="targetPoint" />
            <Array as="points">
              <mxPoint x="165" y="560" />
            </Array>
          </mxGeometry>
        </mxCell>
        <mxCell id="6a9c25DvWT7pFZT9xAfh-14" value="Input Criterias" style="whiteSpace=wrap;html=1;aspect=fixed;" vertex="1" parent="1">
          <mxGeometry x="45" y="520" width="80" height="80" as="geometry" />
        </mxCell>
        <mxCell id="6a9c25DvWT7pFZT9xAfh-26" style="edgeStyle=orthogonalEdgeStyle;rounded=0;orthogonalLoop=1;jettySize=auto;html=1;entryX=0;entryY=0.5;entryDx=0;entryDy=0;" edge="1" parent="1" source="6a9c25DvWT7pFZT9xAfh-15" target="6a9c25DvWT7pFZT9xAfh-25">
          <mxGeometry relative="1" as="geometry">
            <mxPoint x="405" y="620" as="targetPoint" />
            <Array as="points">
              <mxPoint x="405" y="540" />
              <mxPoint x="405" y="620" />
            </Array>
          </mxGeometry>
        </mxCell>
        <mxCell id="6a9c25DvWT7pFZT9xAfh-15" value="Linkedin" style="rounded=1;whiteSpace=wrap;html=1;" vertex="1" parent="1">
          <mxGeometry x="245" y="520" width="110" height="40" as="geometry" />
        </mxCell>
        <mxCell id="6a9c25DvWT7pFZT9xAfh-28" style="edgeStyle=orthogonalEdgeStyle;rounded=0;orthogonalLoop=1;jettySize=auto;html=1;" edge="1" parent="1" source="6a9c25DvWT7pFZT9xAfh-16">
          <mxGeometry relative="1" as="geometry">
            <mxPoint x="445" y="620" as="targetPoint" />
          </mxGeometry>
        </mxCell>
        <mxCell id="6a9c25DvWT7pFZT9xAfh-16" value="Indeed" style="rounded=1;whiteSpace=wrap;html=1;" vertex="1" parent="1">
          <mxGeometry x="245" y="600" width="110" height="40" as="geometry" />
        </mxCell>
        <mxCell id="6a9c25DvWT7pFZT9xAfh-27" style="edgeStyle=orthogonalEdgeStyle;rounded=0;orthogonalLoop=1;jettySize=auto;html=1;entryX=0;entryY=0.5;entryDx=0;entryDy=0;" edge="1" parent="1" source="6a9c25DvWT7pFZT9xAfh-17" target="6a9c25DvWT7pFZT9xAfh-25">
          <mxGeometry relative="1" as="geometry">
            <mxPoint x="405" y="630" as="targetPoint" />
            <Array as="points">
              <mxPoint x="405" y="700" />
              <mxPoint x="405" y="620" />
            </Array>
          </mxGeometry>
        </mxCell>
        <mxCell id="6a9c25DvWT7pFZT9xAfh-17" value="Naukri" style="rounded=1;whiteSpace=wrap;html=1;" vertex="1" parent="1">
          <mxGeometry x="245" y="680" width="110" height="40" as="geometry" />
        </mxCell>
        <mxCell id="6a9c25DvWT7pFZT9xAfh-21" style="edgeStyle=orthogonalEdgeStyle;rounded=0;orthogonalLoop=1;jettySize=auto;html=1;entryX=0;entryY=0.5;entryDx=0;entryDy=0;" edge="1" parent="1" source="6a9c25DvWT7pFZT9xAfh-18" target="6a9c25DvWT7pFZT9xAfh-16">
          <mxGeometry relative="1" as="geometry" />
        </mxCell>
        <mxCell id="6a9c25DvWT7pFZT9xAfh-22" style="edgeStyle=orthogonalEdgeStyle;rounded=0;orthogonalLoop=1;jettySize=auto;html=1;entryX=0;entryY=0.5;entryDx=0;entryDy=0;" edge="1" parent="1" source="6a9c25DvWT7pFZT9xAfh-18" target="6a9c25DvWT7pFZT9xAfh-15">
          <mxGeometry relative="1" as="geometry">
            <mxPoint x="205" y="510.0000000000001" as="targetPoint" />
            <Array as="points">
              <mxPoint x="205" y="620" />
              <mxPoint x="205" y="540" />
            </Array>
          </mxGeometry>
        </mxCell>
        <mxCell id="6a9c25DvWT7pFZT9xAfh-23" style="edgeStyle=orthogonalEdgeStyle;rounded=0;orthogonalLoop=1;jettySize=auto;html=1;entryX=0;entryY=0.5;entryDx=0;entryDy=0;" edge="1" parent="1" source="6a9c25DvWT7pFZT9xAfh-18" target="6a9c25DvWT7pFZT9xAfh-17">
          <mxGeometry relative="1" as="geometry">
            <mxPoint x="205" y="740" as="targetPoint" />
            <Array as="points">
              <mxPoint x="205" y="620" />
              <mxPoint x="205" y="700" />
            </Array>
          </mxGeometry>
        </mxCell>
        <mxCell id="6a9c25DvWT7pFZT9xAfh-18" value="C" style="ellipse;whiteSpace=wrap;html=1;aspect=fixed;" vertex="1" parent="1">
          <mxGeometry x="155" y="610" width="20" height="20" as="geometry" />
        </mxCell>
        <mxCell id="6a9c25DvWT7pFZT9xAfh-30" style="edgeStyle=orthogonalEdgeStyle;rounded=0;orthogonalLoop=1;jettySize=auto;html=1;entryX=0;entryY=0.5;entryDx=0;entryDy=0;" edge="1" parent="1" source="6a9c25DvWT7pFZT9xAfh-25" target="6a9c25DvWT7pFZT9xAfh-29">
          <mxGeometry relative="1" as="geometry" />
        </mxCell>
        <mxCell id="6a9c25DvWT7pFZT9xAfh-25" value="Scraped Data" style="whiteSpace=wrap;html=1;aspect=fixed;" vertex="1" parent="1">
          <mxGeometry x="445" y="580" width="80" height="80" as="geometry" />
        </mxCell>
        <mxCell id="6a9c25DvWT7pFZT9xAfh-31" style="edgeStyle=orthogonalEdgeStyle;rounded=0;orthogonalLoop=1;jettySize=auto;html=1;" edge="1" parent="1" source="6a9c25DvWT7pFZT9xAfh-29">
          <mxGeometry relative="1" as="geometry">
            <mxPoint x="725" y="620" as="targetPoint" />
          </mxGeometry>
        </mxCell>
        <mxCell id="6a9c25DvWT7pFZT9xAfh-29" value="Top Best JOBS" style="rhombus;whiteSpace=wrap;html=1;" vertex="1" parent="1">
          <mxGeometry x="585" y="580" width="80" height="80" as="geometry" />
        </mxCell>
        <mxCell id="6a9c25DvWT7pFZT9xAfh-32" value="Optimized&amp;nbsp;&lt;br&gt;Re-Written&amp;nbsp;&lt;br&gt;Resume (For Selected JOBS)" style="whiteSpace=wrap;html=1;aspect=fixed;" vertex="1" parent="1">
          <mxGeometry x="725" y="580" width="80" height="80" as="geometry" />
        </mxCell>
        <mxCell id="6a9c25DvWT7pFZT9xAfh-33" value="&lt;span style=&quot;font-weight: 400;&quot;&gt;Takes Resume along with location preferences as input, find the top best fit jobs, Free to choose which job to apply, will&lt;br&gt;generate unique resume which is optimized for that specific job, which increases the probability of getting short listed.&lt;br&gt;&lt;/span&gt;" style="text;strokeColor=none;fillColor=none;html=1;fontSize=10;fontStyle=1;verticalAlign=bottom;align=left;horizontal=1;fontColor=#058AFF;" vertex="1" parent="1">
          <mxGeometry x="160" y="440" width="100" height="40" as="geometry" />
        </mxCell>
        <mxCell id="6a9c25DvWT7pFZT9xAfh-36" value="ReGen Stage 3 - Hiring Managers" style="text;strokeColor=none;fillColor=none;html=1;fontSize=24;fontStyle=1;verticalAlign=middle;align=center;" vertex="1" parent="1">
          <mxGeometry x="340" y="810" width="100" height="40" as="geometry" />
        </mxCell>
        <mxCell id="6a9c25DvWT7pFZT9xAfh-39" style="edgeStyle=orthogonalEdgeStyle;rounded=0;orthogonalLoop=1;jettySize=auto;html=1;entryX=0.5;entryY=1;entryDx=0;entryDy=0;" edge="1" parent="1" source="6a9c25DvWT7pFZT9xAfh-40" target="6a9c25DvWT7pFZT9xAfh-46">
          <mxGeometry relative="1" as="geometry">
            <mxPoint x="215" y="1090" as="targetPoint" />
            <Array as="points">
              <mxPoint x="165" y="1090" />
            </Array>
          </mxGeometry>
        </mxCell>
        <mxCell id="6a9c25DvWT7pFZT9xAfh-40" value="Input &lt;br&gt;Criteria" style="whiteSpace=wrap;html=1;aspect=fixed;" vertex="1" parent="1">
          <mxGeometry x="45" y="1050" width="80" height="80" as="geometry" />
        </mxCell>
        <mxCell id="6a9c25DvWT7pFZT9xAfh-41" style="edgeStyle=orthogonalEdgeStyle;rounded=0;orthogonalLoop=1;jettySize=auto;html=1;entryX=0.5;entryY=0;entryDx=0;entryDy=0;" edge="1" parent="1" source="6a9c25DvWT7pFZT9xAfh-42" target="6a9c25DvWT7pFZT9xAfh-46">
          <mxGeometry relative="1" as="geometry">
            <mxPoint x="215" y="970" as="targetPoint" />
            <Array as="points">
              <mxPoint x="165" y="970" />
            </Array>
          </mxGeometry>
        </mxCell>
        <mxCell id="6a9c25DvWT7pFZT9xAfh-42" value="JOB Description" style="whiteSpace=wrap;html=1;aspect=fixed;" vertex="1" parent="1">
          <mxGeometry x="45" y="930" width="80" height="80" as="geometry" />
        </mxCell>
        <mxCell id="6a9c25DvWT7pFZT9xAfh-43" style="edgeStyle=orthogonalEdgeStyle;rounded=0;orthogonalLoop=1;jettySize=auto;html=1;entryX=0;entryY=0.5;entryDx=0;entryDy=0;" edge="1" parent="1" source="6a9c25DvWT7pFZT9xAfh-46">
          <mxGeometry relative="1" as="geometry">
            <mxPoint x="245" y="1030" as="targetPoint" />
          </mxGeometry>
        </mxCell>
        <mxCell id="6a9c25DvWT7pFZT9xAfh-44" style="edgeStyle=orthogonalEdgeStyle;rounded=0;orthogonalLoop=1;jettySize=auto;html=1;entryX=0;entryY=0.5;entryDx=0;entryDy=0;" edge="1" parent="1" source="6a9c25DvWT7pFZT9xAfh-46">
          <mxGeometry relative="1" as="geometry">
            <mxPoint x="245" y="950" as="targetPoint" />
            <Array as="points">
              <mxPoint x="205" y="1030" />
              <mxPoint x="205" y="950" />
            </Array>
          </mxGeometry>
        </mxCell>
        <mxCell id="6a9c25DvWT7pFZT9xAfh-45" style="edgeStyle=orthogonalEdgeStyle;rounded=0;orthogonalLoop=1;jettySize=auto;html=1;entryX=0;entryY=0.5;entryDx=0;entryDy=0;" edge="1" parent="1" source="6a9c25DvWT7pFZT9xAfh-46">
          <mxGeometry relative="1" as="geometry">
            <mxPoint x="245" y="1110" as="targetPoint" />
            <Array as="points">
              <mxPoint x="205" y="1030" />
              <mxPoint x="205" y="1110" />
            </Array>
          </mxGeometry>
        </mxCell>
        <mxCell id="6a9c25DvWT7pFZT9xAfh-46" value="C" style="ellipse;whiteSpace=wrap;html=1;aspect=fixed;" vertex="1" parent="1">
          <mxGeometry x="155" y="1020" width="20" height="20" as="geometry" />
        </mxCell>
        <mxCell id="6a9c25DvWT7pFZT9xAfh-47" value="Linkedin" style="rounded=1;whiteSpace=wrap;html=1;" vertex="1" parent="1">
          <mxGeometry x="245" y="930" width="110" height="40" as="geometry" />
        </mxCell>
        <mxCell id="6a9c25DvWT7pFZT9xAfh-48" value="Indeed" style="rounded=1;whiteSpace=wrap;html=1;" vertex="1" parent="1">
          <mxGeometry x="245" y="1010" width="110" height="40" as="geometry" />
        </mxCell>
        <mxCell id="6a9c25DvWT7pFZT9xAfh-49" value="Naukri" style="rounded=1;whiteSpace=wrap;html=1;" vertex="1" parent="1">
          <mxGeometry x="245" y="1090" width="110" height="40" as="geometry" />
        </mxCell>
        <mxCell id="6a9c25DvWT7pFZT9xAfh-56" style="edgeStyle=orthogonalEdgeStyle;rounded=0;orthogonalLoop=1;jettySize=auto;html=1;entryX=0;entryY=0.5;entryDx=0;entryDy=0;" edge="1" parent="1" target="6a9c25DvWT7pFZT9xAfh-59">
          <mxGeometry relative="1" as="geometry">
            <mxPoint x="405" y="1029.97" as="targetPoint" />
            <mxPoint x="355" y="949.97" as="sourcePoint" />
            <Array as="points">
              <mxPoint x="405" y="949.97" />
              <mxPoint x="405" y="1029.97" />
            </Array>
          </mxGeometry>
        </mxCell>
        <mxCell id="6a9c25DvWT7pFZT9xAfh-57" style="edgeStyle=orthogonalEdgeStyle;rounded=0;orthogonalLoop=1;jettySize=auto;html=1;" edge="1" parent="1">
          <mxGeometry relative="1" as="geometry">
            <mxPoint x="445" y="1029.97" as="targetPoint" />
            <mxPoint x="355" y="1029.97" as="sourcePoint" />
          </mxGeometry>
        </mxCell>
        <mxCell id="6a9c25DvWT7pFZT9xAfh-58" style="edgeStyle=orthogonalEdgeStyle;rounded=0;orthogonalLoop=1;jettySize=auto;html=1;entryX=0;entryY=0.5;entryDx=0;entryDy=0;" edge="1" parent="1" target="6a9c25DvWT7pFZT9xAfh-59">
          <mxGeometry relative="1" as="geometry">
            <mxPoint x="405" y="1039.97" as="targetPoint" />
            <mxPoint x="355" y="1109.97" as="sourcePoint" />
            <Array as="points">
              <mxPoint x="405" y="1109.97" />
              <mxPoint x="405" y="1029.97" />
            </Array>
          </mxGeometry>
        </mxCell>
        <mxCell id="6a9c25DvWT7pFZT9xAfh-61" style="edgeStyle=orthogonalEdgeStyle;rounded=0;orthogonalLoop=1;jettySize=auto;html=1;entryX=0;entryY=0.5;entryDx=0;entryDy=0;" edge="1" parent="1" source="6a9c25DvWT7pFZT9xAfh-59" target="6a9c25DvWT7pFZT9xAfh-60">
          <mxGeometry relative="1" as="geometry" />
        </mxCell>
        <mxCell id="6a9c25DvWT7pFZT9xAfh-59" value="Scraped Data" style="whiteSpace=wrap;html=1;aspect=fixed;" vertex="1" parent="1">
          <mxGeometry x="445" y="989.97" width="80" height="80" as="geometry" />
        </mxCell>
        <mxCell id="6a9c25DvWT7pFZT9xAfh-63" style="edgeStyle=orthogonalEdgeStyle;rounded=0;orthogonalLoop=1;jettySize=auto;html=1;entryX=0;entryY=0.5;entryDx=0;entryDy=0;" edge="1" parent="1" source="6a9c25DvWT7pFZT9xAfh-60" target="6a9c25DvWT7pFZT9xAfh-62">
          <mxGeometry relative="1" as="geometry" />
        </mxCell>
        <mxCell id="6a9c25DvWT7pFZT9xAfh-60" value="Links to best Candidates" style="whiteSpace=wrap;html=1;aspect=fixed;" vertex="1" parent="1">
          <mxGeometry x="580" y="990" width="80" height="80" as="geometry" />
        </mxCell>
        <mxCell id="6a9c25DvWT7pFZT9xAfh-62" value="Bulk Message" style="whiteSpace=wrap;html=1;aspect=fixed;" vertex="1" parent="1">
          <mxGeometry x="710" y="990" width="80" height="80" as="geometry" />
        </mxCell>
        <mxCell id="6a9c25DvWT7pFZT9xAfh-64" value="&lt;span style=&quot;font-weight: 400;&quot;&gt;Takes JOB Description along with filtering criteria, search multiple JOB Platforms to extract potential candidates, find the best fit candidates,&lt;br&gt;Collects the link to their profiles along with contact information, Send Bulk Messages and Bulk Mails.&lt;br&gt;&lt;/span&gt;" style="text;strokeColor=none;fillColor=none;html=1;fontSize=10;fontStyle=1;verticalAlign=bottom;align=left;horizontal=1;fontColor=#058AFF;" vertex="1" parent="1">
          <mxGeometry x="155" y="850" width="100" height="40" as="geometry" />
        </mxCell>
      </root>
    </mxGraphModel>
  </diagram>
</mxfile>
